<svg width="50" height="50" viewBox="0 0 50 50" fill="none" xmlns="http://www.w3.org/2000/svg">
<path d="M46.7916 12.4997C45.1874 13.2288 43.4582 13.708 41.6666 13.9372C43.4999 12.833 44.9166 11.083 45.5833 8.97884C43.8541 10.0205 41.9374 10.7497 39.9166 11.1663C38.2707 9.37467 35.9583 8.33301 33.3333 8.33301C28.4374 8.33301 24.4374 12.333 24.4374 17.2705C24.4374 17.9788 24.5208 18.6663 24.6666 19.3122C17.2499 18.9372 10.6458 15.3747 6.24992 9.97884C5.47909 11.2913 5.04159 12.833 5.04159 14.458C5.04159 17.5622 6.60409 20.3122 9.02075 21.8747C7.54159 21.8747 6.16659 21.458 4.95825 20.833V20.8955C4.95825 25.2288 8.04159 28.8538 12.1249 29.6663C10.8139 30.0251 9.43762 30.075 8.10409 29.8122C8.66993 31.5882 9.77812 33.1422 11.2729 34.2558C12.7676 35.3694 14.5738 35.9865 16.4374 36.0205C13.2783 38.5214 9.36241 39.8732 5.33325 39.8538C4.62492 39.8538 3.91659 39.8122 3.20825 39.7288C7.16659 42.2705 11.8749 43.7497 16.9166 43.7497C33.3333 43.7497 42.3541 30.1247 42.3541 18.3122C42.3541 17.9163 42.3541 17.5413 42.3332 17.1455C44.0832 15.8955 45.5832 14.3122 46.7916 12.4997Z" fill="#F8F8FE"/>
</svg>
