<svg width="50" height="50" viewBox="0 0 50 50" fill="none" xmlns="http://www.w3.org/2000/svg">
<g clip-path="url(#clip0_13_7)">
<path d="M36.6667 11.667H40.0001M15.0001 1.66699H35.0001C38.5363 1.66699 41.9277 3.07175 44.4282 5.57224C46.9287 8.07272 48.3334 11.4641 48.3334 15.0003V35.0003C48.3334 38.5365 46.9287 41.9279 44.4282 44.4284C41.9277 46.9289 38.5363 48.3337 35.0001 48.3337H15.0001C11.4639 48.3337 8.07248 46.9289 5.57199 44.4284C3.07151 41.9279 1.66675 38.5365 1.66675 35.0003V15.0003C1.66675 11.4641 3.07151 8.07272 5.57199 5.57224C8.07248 3.07175 11.4639 1.66699 15.0001 1.66699ZM25.0001 35.0003C22.3479 35.0003 19.8044 33.9468 17.929 32.0714C16.0536 30.196 15.0001 27.6525 15.0001 25.0003C15.0001 22.3482 16.0536 19.8046 17.929 17.9293C19.8044 16.0539 22.3479 15.0003 25.0001 15.0003C27.6522 15.0003 30.1958 16.0539 32.0711 17.9293C33.9465 19.8046 35.0001 22.3482 35.0001 25.0003C35.0001 27.6525 33.9465 30.196 32.0711 32.0714C30.1958 33.9468 27.6522 35.0003 25.0001 35.0003Z" stroke="#F8F8FE" stroke-width="3.33333"/>
</g>
<defs>
<clipPath id="clip0_13_7">
<rect width="50" height="50" fill="white"/>
</clipPath>
</defs>
</svg>
